<?xml version="1.0" encoding="utf-8"?>
<!-- Generator: Adobe Illustrator 21.0.0, SVG Export Plug-In . SVG Version: 6.00 Build 0)  -->
<svg version="1.1" id="Capa_1" xmlns="http://www.w3.org/2000/svg" xmlns:xlink="http://www.w3.org/1999/xlink" x="0px" y="0px"
	 viewBox="0 0 568.5 169.5" style="enable-background:new 0 0 568.5 169.5;" xml:space="preserve">
<style type="text/css">
	.st0{fill:#2F5697;}
	.st1{fill:#9CC2E4;}
	.st2{fill:#203864;}
</style>
<g>
	<g>
		<circle class="st0" cx="187.8" cy="67.7" r="4.6"/>
	</g>
	<g>
		<circle class="st0" cx="171.3" cy="63.2" r="1.3"/>
	</g>
	<g>
		<circle class="st0" cx="192.9" cy="82.1" r="1.3"/>
	</g>
	<g>
		<path class="st0" d="M187.8,103.8c-6.6,0-12.8-1.8-18.1-4.8l-2.3,3.9c6,3.5,12.9,5.4,20.3,5.4c7.4,0,14.4-2,20.3-5.4l-2.3-3.9
			C200.6,102,194.4,103.8,187.8,103.8z"/>
	</g>
	<g>
		<path class="st0" d="M188.6,100.2v-2.7h0.3c15.7-0.5,28.3-13.2,28.8-28.8v-0.3h2.7v0.3c-0.5,17.2-14.4,31-31.5,31.5H188.6z
			 M189.1,98v1.7c16.7-0.6,30.1-14.1,30.8-30.8h-1.7c-0.3,7.6-3.5,14.8-8.9,20.2C203.9,94.6,196.6,97.7,189.1,98z"/>
	</g>
	<g>
		<path class="st0" d="M186.8,97.8v2.2c-17.1-0.5-30.8-14.2-31.3-31.3h2.2C158.3,84.5,170.9,97.2,186.8,97.8z"/>
	</g>
	<g>
		<ellipse transform="matrix(0.342 -0.9397 0.9397 0.342 72.3142 268.5705)" class="st0" cx="227.9" cy="82.6" rx="1.6" ry="1.6"/>
	</g>
	<g>
		<ellipse transform="matrix(0.1736 -0.9848 0.9848 0.1736 115.9195 288.6894)" class="st0" cx="230" cy="75.3" rx="1.6" ry="1.6"/>
	</g>
	<g>
		<circle class="st0" cx="230.6" cy="67.7" r="1.6"/>
	</g>
	<g>
		<g>
			<path class="st0" d="M213.9,16.5c-3.9-2-8.1-3.6-12.5-4.6v-1.2c-4.3-1-8.9-1.6-13.5-1.6l0,0c-4.7,0-9.2,0.5-13.5,1.6v5.9h27.1v-1
				c1.2,0.3,2.3,0.6,3.5,1c21.4,7.1,36.9,27.3,36.9,51.1c0,22.2-13.4,41.2-32.5,49.5c-2.5,1.1-5.1,2-7.8,2.7v-2.7h-27.1v7.5
				c4.3,1,8.9,1.6,13.5,1.6l0,0c4.7,0,9.2-0.5,13.5-1.6v-1.2c5.5-1.3,10.8-3.5,15.6-6.3c16.9-10,28.3-28.4,28.3-49.5
				C245.1,45.4,232.5,26,213.9,16.5z"/>
		</g>
		<g>
			<path class="st1" d="M133.6,67.7c0-23.1,14.5-42.9,35-50.6v-3.5c-22.3,7.9-38.3,29.1-38.3,54.1c0,16.6,7.1,31.6,18.4,42.1
				c5.7,5.3,12.4,9.4,19.9,12v-3.5c-6.6-2.5-12.6-6.2-17.7-10.9C140.4,97.5,133.6,83.3,133.6,67.7z"/>
		</g>
		<g>
			<circle class="st0" cx="201.6" cy="55.4" r="1.3"/>
		</g>
		<g>
			<path class="st0" d="M200.3,67.7c1.4-1.2,2.7-2.3,3.8-3.5c3.2-3.4,4.4-6.1,3.3-7.9c-0.6-1-1.7-1.5-3.4-1.6
				c0.1,0.2,0.1,0.4,0.1,0.6c0,0.1,0,0.2,0,0.3c1.3,0.1,2.1,0.5,2.5,1.1c1,1.8-1.6,5.8-7,10.3c-1.5-1.2-3.1-2.3-4.8-3.4
				c-0.1-2-0.3-4-0.6-5.9c1.9-0.7,3.6-1.2,5.1-1.6c-0.1-0.3-0.1-0.5-0.1-0.8v-0.1c-0.1,0-0.1,0-0.2,0c-1.5,0.4-3.2,0.9-4.9,1.5
				c-0.3-1.8-0.7-3.5-1.1-5c-1.3-4.5-3.1-6.8-5.1-6.8s-3.8,2.4-5.1,6.8c-0.4,1.5-0.8,3.2-1.1,5c-1.7-0.6-3.4-1.2-4.9-1.5
				c-4.5-1.1-7.5-0.7-8.5,1c-0.7,1.3-0.3,3,1.2,5.2c0.2-0.2,0.5-0.4,0.7-0.6c-1.2-1.8-1.6-3.3-1.1-4.2c0.4-0.8,1.6-1.2,3.2-1.2
				c1.2,0,2.6,0.2,4.2,0.6c1.5,0.4,3.2,0.9,4.9,1.5c-0.3,1.8-0.5,3.8-0.6,5.9c-1.7,1.1-3.3,2.3-4.8,3.4c-1-0.8-1.9-1.6-2.8-2.4
				c-0.2,0.3-0.4,0.5-0.7,0.7c0.8,0.8,1.7,1.6,2.7,2.4c-1.4,1.2-2.7,2.3-3.8,3.5c-3.2,3.4-4.4,6.1-3.3,7.9c0.6,1.1,2,1.6,4,1.6
				c1.2,0,2.7-0.2,4.4-0.6c1.5-0.4,3.2-0.9,4.9-1.5c0.3,1.8,0.7,3.5,1.1,5c1.3,4.5,3.1,6.8,5.1,6.8c1.8,0,3.5-2,4.8-5.7
				c-0.3,0-0.6-0.1-0.9-0.3c-1.1,3.2-2.5,5-3.9,5c-2.1,0-4.2-4.2-5.4-11.2c1.7-0.7,3.5-1.5,5.4-2.4c1.8,0.9,3.6,1.7,5.4,2.4
				c-0.1,0.5-0.2,1-0.3,1.5c0.3,0,0.6,0.1,0.9,0.2c0.1-0.4,0.2-0.9,0.2-1.3c1.7,0.6,3.4,1.2,4.9,1.5c1.7,0.4,3.2,0.6,4.4,0.6
				c2,0,3.4-0.5,4-1.6c1-1.8-0.1-4.5-3.3-7.9C202.9,70,201.8,68.8,200.3,67.7z M180.8,64.8c0,0.9-0.1,1.9-0.1,2.9s0,1.9,0.1,2.9
				c-1.5-1-2.8-1.9-4-2.9C177.9,66.7,179.3,65.7,180.8,64.8z M168.9,78.5c-1-1.8,1.6-5.8,7-10.3c1.5,1.2,3.1,2.3,4.8,3.4
				c0.1,2,0.3,4,0.6,5.9C174.8,80.1,170.1,80.3,168.9,78.5z M193.8,63c-0.8-0.5-1.6-1-2.5-1.5c-0.8-0.5-1.7-0.9-2.5-1.4
				c1.6-0.8,3.1-1.5,4.5-2C193.6,59.6,193.6,61.3,193.8,63z M187.8,46c2.1,0,4.2,4.2,5.4,11.2c-1.7,0.7-3.5,1.5-5.4,2.4
				c-1.8-0.9-3.6-1.7-5.4-2.4C183.6,50.2,185.8,46,187.8,46z M182.3,58.1c1.5,0.6,3,1.3,4.5,2c-0.8,0.4-1.7,0.9-2.5,1.4
				s-1.7,1-2.5,1.5C181.9,61.3,182.1,59.6,182.3,58.1z M182.3,77.2c-0.2-1.5-0.4-3.2-0.5-4.9c0.8,0.5,1.6,1,2.5,1.5
				c0.8,0.5,1.7,1,2.5,1.4C185.3,76,183.6,76.6,182.3,77.2z M193.4,77.2c-1.4-0.6-2.9-1.2-4.5-2c0.8-0.4,1.7-0.9,2.5-1.4
				s1.7-1,2.5-1.5C193.6,74.1,193.6,75.7,193.4,77.2z M193.9,71.2c-1,0.6-2,1.2-3,1.8c-1,0.6-2.1,1.2-3.1,1.7c-1-0.5-2-1.1-3.1-1.7
				c-1-0.6-2-1.2-3-1.8c-0.1-1.1-0.1-2.3-0.1-3.5s0-2.4,0.1-3.5c1-0.6,2-1.2,3-1.8c1-0.6,2.1-1.2,3.1-1.7c1,0.5,2.1,1.1,3.1,1.7
				s2,1.2,3,1.8c0.1,1.1,0.1,2.3,0.1,3.5C193.9,68.9,193.9,70,193.9,71.2z M194.9,64.8c1.5,1,2.8,1.9,4,2.9c-1.2,0.9-2.5,1.9-4,2.9
				c0-0.9,0.1-1.9,0.1-2.9C194.9,66.7,194.9,65.7,194.9,64.8z M206.6,78.5c-1,1.8-5.8,1.6-12.4-1c0.3-1.9,0.5-3.8,0.6-5.9
				c1.7-1.1,3.3-2.3,4.8-3.4C205.1,72.7,207.6,76.7,206.6,78.5z"/>
		</g>
		<path class="st0" d="M162.9,27.2c0.7-0.4,1.4-0.9,2.2-1.3h0.1c0,0,0,0,0.1,0s0.1,0.1,0.1,0.1c0,0.1,0,0.2-0.1,0.3
			c-0.7,0.4-1.5,0.8-2.2,1.3c0,0.1,0.1,0.2,0.1,0.3c0.7-0.5,1.5-0.9,2.3-1.3c0.2-0.1,0.3-0.4,0.2-0.7c-0.1-0.1-0.2-0.2-0.3-0.3
			c-0.1,0-0.3,0-0.4,0c-0.8,0.4-1.5,0.9-2.2,1.3C162.9,27,162.9,27.1,162.9,27.2z"/>
		<path class="st0" d="M158.1,32.1c-0.1,0-0.3,0-0.4-0.1c-0.3-0.1-0.5-0.3-0.7-0.5l0,0c-0.3-0.4-0.4-0.9-0.3-1.4
			c0.1-0.3,0.2-0.5,0.4-0.7l0,0c1.2-1,2.5-1.9,3.7-2.6l0.1-0.1l0.1-0.1l0,0c0.4-0.2,0.8-0.3,1.3-0.2c0.4,0.1,0.7,0.4,0.9,0.7
			c0.2,0.4,0.3,0.8,0.2,1.2c-0.1,0.2-0.2,0.5-0.4,0.6l0,0l0,0c-0.2,0.1-0.4,0.2-0.5,0.3c-1.1,0.7-2.1,1.4-3.1,2.2l0,0l0,0l0,0
			c-0.1,0-0.1,0.1-0.2,0.2l0,0C158.8,32.1,158.4,32.1,158.1,32.1z M157.4,29.8c-0.1,0.1-0.2,0.3-0.3,0.5c-0.1,0.4,0,0.7,0.2,1l0,0
			c0.1,0.2,0.3,0.3,0.5,0.4c0.3,0.1,0.6,0,0.9-0.1c0.1-0.1,0.1-0.1,0.2-0.1l0,0l0,0c1-0.8,2.1-1.5,3.1-2.2c0.2-0.1,0.4-0.2,0.5-0.3
			l0,0c0.1-0.1,0.2-0.3,0.3-0.5c0.1-0.3,0.1-0.6-0.1-0.9c-0.1-0.3-0.4-0.4-0.7-0.5s-0.6,0-0.9,0.1l0,0l-0.1,0.1l-0.3,0.2
			C159.8,28,158.6,28.9,157.4,29.8z"/>
		<path class="st0" d="M228.5,42.7c-4-6.5-9.5-12-16-15.9l-0.2,0.3c14.2,8.6,22.9,23.9,22.9,40.6c0,18.6-11,35.6-27.9,43.3
			c-6.2,2.8-12.7,4.2-19.6,4.2c-6.7,0-13.1-1.4-19.2-4c-17.2-7.6-28.3-24.6-28.3-43.4c0-14.1,6.3-27.3,16.8-36.2
			c-0.1-0.1-0.1-0.2-0.2-0.3c-10.6,9-17,22.3-17,36.5c0,9.4,2.7,18.6,7.9,26.4c5.1,7.6,12.2,13.6,20.5,17.3
			c6.1,2.7,12.6,4.1,19.3,4.1c6.9,0,13.5-1.4,19.7-4.2c8.3-3.7,15.3-9.7,20.3-17.3c5.1-7.8,7.8-16.9,7.8-26.2
			C235.5,58.8,233.1,50.2,228.5,42.7z"/>
		<path class="st0" d="M140.8,67.7c0,9.3,2.7,18.3,7.8,26c5,7.5,12,13.4,20.2,17.1c6,2.7,12.4,4,19,4c6.8,0,13.3-1.4,19.4-4.2
			c8.1-3.7,15-9.6,20-17.1c5.1-7.7,7.7-16.6,7.7-25.8c0-8.7-2.4-17.2-6.9-24.6c-3.9-6.4-9.4-11.8-15.8-15.7l-0.2,0.3
			c14,8.5,22.6,23.6,22.6,40c0,18.3-10.8,35.1-27.5,42.6c-6.1,2.7-12.5,4.1-19.3,4.1c-6.6,0-12.9-1.3-18.9-4
			C152,102.9,141,86.1,141,67.6c0-14,6.2-27,16.7-35.8c-0.1,0-0.2-0.1-0.3-0.2C146.9,40.5,140.8,53.6,140.8,67.7z"/>
		<path class="st0" d="M211.9,28l-1.4-0.9l0.9-1.4l1.4,0.9L211.9,28z M210.8,27l1,0.7l0.7-1l-1-0.7L210.8,27z"/>
		<path class="st0" d="M211.8,27.6l-0.9-0.6l0.6-0.9l0.9,0.6L211.8,27.6z M211.1,26.9l0.5,0.3l0.4-0.5l-0.5-0.3L211.1,26.9z"/>
		<path class="st0" d="M209.9,27.3l-3-2l1.5-2.1l3,2l0.1,0.7l-0.9,1.3L209.9,27.3z M207.3,25.3l2.7,1.8l0.5-0.1l0.8-1.1l-0.1-0.5
			l-2.7-1.8L207.3,25.3z"/>
		<path class="st0" d="M209.8,26.7l-2.1-1.4l1-1.5l2.1,1.4l0.1,0.5l-0.6,0.9L209.8,26.7z M207.9,25.3l1.9,1.3l0.3-0.1l0.5-0.7
			l-0.1-0.3l-1.9-1.3L207.9,25.3z"/>
		<path class="st0" d="M211.1,29.3l-1.8-1.2l1.2-1.2l1.4,0.9L211.1,29.3z M209.8,28.1l1.4,0.9l0.6-1.1l-1.1-0.7L209.8,28.1z"/>
		<path class="st0" d="M211.1,28.8l-1-0.7l0.7-0.7l0.8,0.5L211.1,28.8z M210.3,28l0.6,0.4l0.3-0.5l-0.5-0.3L210.3,28z"/>
		<path class="st0" d="M212.6,26.8l-1.4-0.9l0.7-1.5l1.8,1.2L212.6,26.8z M211.6,25.8l1.1,0.7l0.9-0.9l-1.4-0.9L211.6,25.8z"/>
		<path class="st0" d="M212.6,26.4l-0.8-0.6l0.5-1l1.1,0.8L212.6,26.4z M211.9,25.7l0.5,0.4l0.5-0.5l-0.7-0.5L211.9,25.7z"/>
		<g>
			<path class="st2" d="M173.6,34.4l-1.8-4.2c-13.1,5.6-22.7,17.8-24.5,32.5l4.5,0.6C153.6,50.2,162.1,39.3,173.6,34.4z"/>
		</g>
		<g>
			<path class="st1" d="M223.6,63.3l4.5-0.6c-1.8-14.7-11.4-26.9-24.5-32.5l-1.8,4.2C213.6,39.3,222,50.2,223.6,63.3z"/>
		</g>
		<g>
			<path class="st1" d="M186.8,35.4v2.2c-15.8,0.5-28.6,13.3-29.1,29.1h-2.2C156.1,49.6,169.8,35.9,186.8,35.4z"/>
		</g>
		<g>
			<path class="st2" d="M220,66.7h-2.2c-0.5-15.8-13.3-28.6-29.1-29.1v-2.2C205.9,35.9,219.6,49.6,220,66.7z"/>
		</g>
		<g>
			<path class="st1" d="M130.6,9.7L80,125.7H58.9L8.3,9.7h23.4l38.6,89.5l38.9-89.5H130.6z"/>
		</g>
		<g>
			<path class="st0" d="M329,125.7l-31.5-44.1l-31.2,44.1h-24.5L285,66.5L244.1,9.7h24.4L298.3,51l29.3-41.3h23.4l-40.6,56l43.6,60
				H329z"/>
		</g>
		<g>
			<path class="st0" d="M454,107.6v18.1h-87V9.7h84.7v18h-63.1v30.2h56v17.7h-56v32H454z"/>
		</g>
		<g>
			<path class="st0" d="M478,9.7h21.5v97.8h60.7v18.2H478V9.7z"/>
		</g>
	</g>
	<g>
		<path class="st0" d="M20.5,160.1l-4.1-5.8c-0.5,0.1-0.9,0.1-1.4,0.1h-4.8v5.7H8.3V142h6.8c2.3,0,4.1,0.6,5.4,1.7
			c1.3,1.1,2,2.6,2,4.5c0,1.4-0.4,2.6-1.1,3.6c-0.7,1-1.7,1.7-3.1,2.1l4.4,6.2H20.5z M19,151.6c0.9-0.8,1.4-1.9,1.4-3.3
			c0-1.5-0.5-2.6-1.4-3.4c-0.9-0.8-2.3-1.2-4.1-1.2h-4.8v9.1H15C16.8,152.8,18,152.4,19,151.6z"/>
		<path class="st0" d="M37.6,155.3h-10l-2.2,4.8h-2l8.3-18.1h1.9l8.3,18.1h-2L37.6,155.3z M36.8,153.8l-4.3-9.7l-4.3,9.7H36.8z"/>
		<path class="st0" d="M44.2,142.1h7.3c1.9,0,3.6,0.4,5.1,1.1c1.5,0.8,2.6,1.8,3.4,3.2s1.2,2.9,1.2,4.7s-0.4,3.3-1.2,4.7
			c-0.8,1.4-1.9,2.4-3.4,3.2s-3.1,1.1-5.1,1.1h-7.3V142.1z M51.4,158.5c1.6,0,3-0.3,4.2-0.9c1.2-0.6,2.1-1.5,2.8-2.6
			c0.7-1.1,1-2.4,1-3.8c0-1.4-0.3-2.7-1-3.8s-1.6-2-2.8-2.6c-1.2-0.6-2.6-0.9-4.2-0.9h-5.3v14.8h5.3V158.5z"/>
		<path class="st0" d="M64.8,142.1h1.9v18.1h-1.9V142.1z"/>
		<path class="st0" d="M75.2,159.1c-1.5-0.8-2.6-1.9-3.4-3.3c-0.8-1.4-1.2-3-1.2-4.7s0.4-3.3,1.2-4.7c0.8-1.4,2-2.5,3.4-3.3
			c1.5-0.8,3.1-1.2,4.9-1.2s3.4,0.4,4.8,1.2s2.6,1.9,3.4,3.3c0.8,1.4,1.2,3,1.2,4.7s-0.4,3.3-1.2,4.7s-2,2.5-3.4,3.3s-3,1.2-4.8,1.2
			C78.2,160.3,76.6,159.9,75.2,159.1z M83.8,157.6c1.2-0.6,2.1-1.5,2.7-2.7c0.7-1.1,1-2.4,1-3.8c0-1.4-0.3-2.7-1-3.8s-1.6-2-2.7-2.7
			c-1.2-0.6-2.4-1-3.9-1c-1.4,0-2.7,0.3-3.9,1c-1.2,0.6-2.1,1.5-2.7,2.7c-0.7,1.1-1,2.4-1,3.8c0,1.4,0.3,2.7,1,3.8s1.6,2,2.7,2.7
			c1.2,0.6,2.5,1,3.9,1S82.7,158.3,83.8,157.6z"/>
		<path class="st0" d="M93.1,142.1H95v16.4h10.1v1.7h-12V142.1z"/>
		<path class="st0" d="M110.4,159.1c-1.5-0.8-2.6-1.9-3.4-3.3c-0.8-1.4-1.2-3-1.2-4.7s0.4-3.3,1.2-4.7s2-2.5,3.4-3.3
			c1.5-0.8,3.1-1.2,4.9-1.2c1.8,0,3.4,0.4,4.8,1.2c1.4,0.8,2.6,1.9,3.4,3.3c0.8,1.4,1.2,3,1.2,4.7s-0.4,3.3-1.2,4.7s-2,2.5-3.4,3.3
			s-3,1.2-4.8,1.2C113.4,160.3,111.9,159.9,110.4,159.1z M119.1,157.6c1.2-0.6,2.1-1.5,2.7-2.7c0.7-1.1,1-2.4,1-3.8
			c0-1.4-0.3-2.7-1-3.8s-1.6-2-2.7-2.7c-1.2-0.6-2.4-1-3.9-1c-1.4,0-2.7,0.3-3.9,1c-1.2,0.6-2.1,1.5-2.7,2.7c-0.7,1.1-1,2.4-1,3.8
			c0,1.4,0.3,2.7,1,3.8s1.6,2,2.7,2.7c1.2,0.6,2.5,1,3.9,1S117.9,158.3,119.1,157.6z"/>
		<path class="st0" d="M141.1,151.1h1.8v6.9c-0.8,0.7-1.8,1.3-3,1.7s-2.4,0.6-3.6,0.6c-1.8,0-3.4-0.4-4.9-1.2
			c-1.4-0.8-2.6-1.9-3.4-3.3c-0.8-1.4-1.2-3-1.2-4.7s0.4-3.3,1.2-4.7s2-2.5,3.4-3.3s3.1-1.2,4.9-1.2c1.4,0,2.6,0.2,3.8,0.7
			c1.2,0.4,2.1,1.1,2.9,1.9l-1.2,1.2c-1.4-1.4-3.2-2.1-5.4-2.1c-1.5,0-2.8,0.3-4,1c-1.2,0.6-2.1,1.5-2.8,2.7c-0.7,1.1-1,2.4-1,3.8
			c0,1.4,0.3,2.7,1,3.8s1.6,2,2.8,2.7s2.5,1,3.9,1c1.9,0,3.4-0.5,4.7-1.4v-6.1H141.1z"/>
		<path class="st0" d="M150.6,137.4h2.5l-4.2,3.2h-1.8L150.6,137.4z M147.8,142.1h1.9v18.1h-1.9V142.1z"/>
		<path class="st0" d="M166.3,155.3h-10.1l-2.2,4.8h-2l8.3-18.1h1.9l8.3,18.1h-2L166.3,155.3z M165.6,153.8l-4.3-9.7l-4.3,9.7H165.6
			z"/>
		<path class="st0" d="M178.9,142.1h7.3c1.9,0,3.6,0.4,5.1,1.1c1.5,0.8,2.6,1.8,3.4,3.2c0.8,1.4,1.2,2.9,1.2,4.7s-0.4,3.3-1.2,4.7
			s-1.9,2.4-3.4,3.2s-3.1,1.1-5.1,1.1h-7.3V142.1z M186.3,158.5c1.6,0,3-0.3,4.2-0.9c1.2-0.6,2.1-1.5,2.8-2.6s1-2.4,1-3.8
			c0-1.4-0.3-2.7-1-3.8s-1.6-2-2.8-2.6s-2.6-0.9-4.2-0.9h-5.3v14.8h5.3V158.5z"/>
		<path class="st0" d="M199.8,142.1h1.9v18.1h-1.9V142.1z"/>
		<path class="st0" d="M218.3,155.3h-10.1l-2.2,4.8h-2l8.3-18.1h1.9l8.3,18.1h-2L218.3,155.3z M217.6,153.8l-4.3-9.7l-4.3,9.7H217.6
			z"/>
		<path class="st0" d="M237.3,151.1h1.8v6.9c-0.8,0.7-1.8,1.3-3,1.7s-2.4,0.6-3.6,0.6c-1.8,0-3.4-0.4-4.9-1.2
			c-1.4-0.8-2.6-1.9-3.4-3.3c-0.8-1.4-1.2-3-1.2-4.7s0.4-3.3,1.2-4.7c0.8-1.4,2-2.5,3.4-3.3s3.1-1.2,4.9-1.2c1.4,0,2.6,0.2,3.8,0.7
			c1.2,0.4,2.1,1.1,2.9,1.9l-1.2,1.2c-1.4-1.4-3.2-2.1-5.4-2.1c-1.5,0-2.8,0.3-4,1c-1.2,0.6-2.1,1.5-2.8,2.7c-0.7,1.1-1,2.4-1,3.8
			c0,1.4,0.3,2.7,1,3.8s1.6,2,2.8,2.7c1.2,0.7,2.5,1,3.9,1c1.9,0,3.4-0.5,4.7-1.4v-6.1H237.3z"/>
		<path class="st0" d="M259,142.1v18.1h-1.6l-11.6-14.7v14.6h-1.9V142h1.6l11.6,14.6V142L259,142.1L259,142.1z"/>
		<path class="st0" d="M267.3,159.1c-1.5-0.8-2.6-1.9-3.4-3.3c-0.8-1.4-1.2-3-1.2-4.7s0.4-3.3,1.2-4.7c0.8-1.4,2-2.5,3.4-3.3
			c1.5-0.8,3.1-1.2,4.9-1.2s3.4,0.4,4.8,1.2s2.6,1.9,3.4,3.3c0.8,1.4,1.2,3,1.2,4.7s-0.4,3.3-1.2,4.7s-2,2.5-3.4,3.3s-3,1.2-4.8,1.2
			C270.4,160.3,268.8,159.9,267.3,159.1z M276,157.6c1.2-0.6,2.1-1.5,2.7-2.7c0.7-1.1,1-2.4,1-3.8c0-1.4-0.3-2.7-1-3.8
			s-1.6-2-2.7-2.7c-1.2-0.6-2.4-1-3.9-1c-1.4,0-2.7,0.3-3.9,1c-1.2,0.6-2.1,1.5-2.7,2.7c-0.7,1.1-1,2.4-1,3.8c0,1.4,0.3,2.7,1,3.8
			s1.6,2,2.7,2.7c1.2,0.6,2.5,1,3.9,1S274.9,158.3,276,157.6z M274,137.4h2.5l-4.2,3.2h-1.8L274,137.4z"/>
		<path class="st0" d="M286.5,159.6c-1.2-0.4-2.2-1-2.8-1.7l0.7-1.5c0.7,0.7,1.5,1.2,2.6,1.6c1.1,0.4,2.2,0.6,3.4,0.6
			c1.6,0,2.8-0.3,3.6-0.9c0.8-0.6,1.2-1.4,1.2-2.3c0-0.7-0.2-1.3-0.7-1.7c-0.4-0.4-1-0.8-1.6-1s-1.5-0.5-2.7-0.8
			c-1.4-0.3-2.4-0.7-3.2-1c-0.8-0.3-1.5-0.8-2.1-1.5s-0.9-1.5-0.9-2.7c0-0.9,0.2-1.7,0.7-2.5c0.5-0.7,1.2-1.3,2.2-1.8
			c1-0.4,2.2-0.7,3.7-0.7c1,0,2,0.1,3,0.4c1,0.3,1.8,0.7,2.6,1.2l-0.6,1.5c-0.8-0.5-1.6-0.9-2.4-1.1c-0.9-0.2-1.7-0.4-2.5-0.4
			c-1.6,0-2.8,0.3-3.6,0.9c-0.8,0.6-1.2,1.4-1.2,2.4c0,0.7,0.2,1.3,0.7,1.7c0.4,0.4,1,0.8,1.7,1s1.6,0.5,2.7,0.8
			c1.3,0.3,2.4,0.6,3.2,1c0.8,0.3,1.5,0.8,2.1,1.4c0.6,0.6,0.9,1.5,0.9,2.6c0,0.9-0.2,1.7-0.7,2.5c-0.5,0.7-1.2,1.3-2.3,1.8
			c-1,0.4-2.3,0.7-3.7,0.7C289,160.3,287.6,160.1,286.5,159.6z"/>
		<path class="st0" d="M303.9,143.7h-6.3V142h14.6v1.7h-6.4v16.4h-1.9V143.7z"/>
		<path class="st0" d="M314.5,142.1h1.9v18.1h-1.9V142.1z"/>
		<path class="st0" d="M324.8,159.1c-1.4-0.8-2.6-1.9-3.4-3.3s-1.2-3-1.2-4.7s0.4-3.3,1.2-4.7c0.8-1.4,1.9-2.5,3.4-3.3
			c1.4-0.8,3.1-1.2,4.8-1.2c1.3,0,2.6,0.2,3.7,0.7c1.1,0.4,2.1,1.1,2.9,2l-1.2,1.2c-1.4-1.4-3.2-2.1-5.3-2.1c-1.4,0-2.7,0.3-3.9,1
			c-1.2,0.7-2.1,1.5-2.7,2.7c-0.7,1.1-1,2.4-1,3.8c0,1.4,0.3,2.7,1,3.8s1.6,2,2.7,2.7c1.2,0.7,2.5,1,3.9,1c2.2,0,3.9-0.7,5.3-2.2
			l1.2,1.2c-0.8,0.9-1.8,1.5-2.9,2s-2.4,0.7-3.7,0.7C327.8,160.3,326.1,159.9,324.8,159.1z"/>
		<path class="st0" d="M350.5,155.3h-10.1l-2.2,4.8h-2l8.3-18.1h1.9l8.3,18.1h-2L350.5,155.3z M349.9,153.8l-4.3-9.7l-4.3,9.7H349.9
			z"/>
		<path class="st0" d="M369.5,153.9v6.2h-1.9v-6.2l-7.2-11.8h2l6.2,10.1l6.2-10.1h1.9L369.5,153.9z"/>
		<path class="st0" d="M388.8,143.7h-6.3V142h14.6v1.7h-6.3v16.4h-2V143.7z"/>
		<path class="st0" d="M412.1,158.5v1.7h-12.8v-18.1h12.4v1.7h-10.5v6.4h9.3v1.6h-9.3v6.7L412.1,158.5L412.1,158.5z"/>
		<path class="st0" d="M428.5,160.1l-4.1-5.8c-0.5,0.1-0.9,0.1-1.4,0.1h-4.8v5.7h-1.9V142h6.8c2.3,0,4.1,0.6,5.4,1.7
			c1.3,1.1,2,2.6,2,4.5c0,1.4-0.4,2.6-1.1,3.6s-1.7,1.7-3.1,2.1l4.4,6.2H428.5z M426.9,151.6c0.9-0.8,1.4-1.9,1.4-3.3
			c0-1.5-0.5-2.6-1.4-3.4c-0.9-0.8-2.3-1.2-4.1-1.2H418v9.1h4.8C424.5,152.8,426,152.4,426.9,151.6z"/>
		<path class="st0" d="M445.5,155.3h-10.1l-2.2,4.8h-2l8.3-18.1h1.9l8.3,18.1h-2L445.5,155.3z M444.8,153.8l-4.3-9.7l-4.3,9.7H444.8
			z"/>
		<path class="st0" d="M464.3,143.7c1.3,1.1,2,2.6,2,4.5s-0.7,3.4-2,4.5s-3.1,1.6-5.4,1.6h-4.8v5.7h-1.9v-18.1h6.8
			C461,142.1,462.9,142.6,464.3,143.7z M462.9,151.6c0.9-0.8,1.4-1.9,1.4-3.3c0-1.5-0.5-2.6-1.4-3.4c-0.9-0.8-2.3-1.2-4.1-1.2H454v9
			h4.8C460.5,152.8,461.9,152.4,462.9,151.6z"/>
		<path class="st0" d="M482.5,158.5v1.7h-12.8v-18.1h12.4v1.7h-10.5v6.4h9.3v1.6h-9.3v6.7L482.5,158.5L482.5,158.5z M477.8,137.4
			h2.5l-4.2,3.2h-1.8L477.8,137.4z"/>
		<path class="st0" d="M488.2,158.3c-1.3-1.3-2-3.3-2-5.9v-10.3h1.9v10.3c0,2.1,0.5,3.7,1.4,4.7s2.3,1.5,4.1,1.5s3.2-0.5,4.1-1.5
			c0.9-1,1.4-2.6,1.4-4.7v-10.3h1.9v10.3c0,2.6-0.6,4.5-1.9,5.9c-1.3,1.3-3.1,2-5.5,2S489.5,159.6,488.2,158.3z"/>
		<path class="st0" d="M509.3,143.7H503V142h14.6v1.7h-6.3v16.4h-1.9L509.3,143.7L509.3,143.7z"/>
		<path class="st0" d="M520,142.1h1.9v18.1H520V142.1z"/>
		<path class="st0" d="M530.3,159.1c-1.4-0.8-2.6-1.9-3.4-3.3c-0.8-1.4-1.2-3-1.2-4.7s0.4-3.3,1.2-4.7s1.9-2.5,3.4-3.3
			c1.4-0.8,3.1-1.2,4.8-1.2c1.3,0,2.6,0.2,3.7,0.7c1.1,0.4,2.1,1.1,2.9,2l-1.2,1.2c-1.4-1.4-3.2-2.1-5.3-2.1c-1.4,0-2.7,0.3-3.9,1
			s-2.1,1.5-2.7,2.7c-0.7,1.1-1,2.4-1,3.8c0,1.4,0.3,2.7,1,3.8s1.6,2,2.7,2.7c1.2,0.7,2.5,1,3.9,1c2.2,0,3.9-0.7,5.3-2.2l1.2,1.2
			c-0.8,0.9-1.8,1.5-2.9,2c-1.1,0.5-2.4,0.7-3.7,0.7C533.3,160.3,531.7,159.9,530.3,159.1z"/>
		<path class="st0" d="M556,155.3H546l-2.2,4.8h-2L550,142h1.9l8.3,18.1h-2L556,155.3z M555.3,153.8l-4.3-9.7l-4.3,9.7H555.3z"/>
	</g>
</g>
</svg>
