<?xml version="1.0" standalone="no"?>
<!DOCTYPE svg PUBLIC "-//W3C//DTD SVG 20010904//EN"
 "http://www.w3.org/TR/2001/REC-SVG-20010904/DTD/svg10.dtd">
<svg version="1.0" xmlns="http://www.w3.org/2000/svg"
 width="700.000000pt" height="700.000000pt" viewBox="0 0 700.000000 700.000000"
 preserveAspectRatio="xMidYMid meet">
<metadata>
Created by potrace 1.14, written by Peter Selinger 2001-2017
</metadata>
<g transform="translate(0.000000,700.000000) scale(0.100000,-0.100000)"
fill="#000000" stroke="none">
<path d="M3393 6830 c-254 -70 -474 -397 -647 -965 -67 -223 -136 -513 -171
-725 -3 -19 -7 -35 -8 -36 -1 -1 -42 13 -92 31 -91 34 -318 108 -500 164 -102
31 -242 64 -325 76 -24 4 -47 8 -50 10 -3 2 -32 6 -65 10 -33 3 -87 10 -120
15 -67 9 -381 6 -435 -4 -295 -58 -450 -230 -433 -484 8 -118 71 -279 167
-427 l56 -86 23 21 c12 12 37 30 54 41 36 23 36 24 -13 97 -45 66 -112 215
-132 292 -56 225 27 351 268 411 59 15 364 19 455 7 172 -24 281 -45 460 -88
147 -36 428 -123 500 -154 17 -7 58 -23 93 -36 l63 -23 -5 -36 c-46 -329 -69
-574 -75 -786 l-1 -51 -175 -118 c-191 -130 -397 -280 -479 -349 l-51 -44 -33
22 c-18 12 -47 35 -65 51 -18 16 -64 56 -102 89 -39 32 -101 90 -139 127 -39
37 -72 68 -75 67 -3 0 -24 -21 -45 -45 l-39 -45 54 -48 c30 -27 74 -68 99 -91
25 -23 71 -66 104 -94 32 -28 75 -65 95 -83 l36 -31 -30 -24 c-128 -99 -502
-455 -609 -578 -288 -333 -438 -612 -451 -840 -13 -244 133 -399 425 -451 82
-14 302 -19 400 -8 41 5 99 11 129 15 30 3 64 8 75 10 12 2 37 7 56 10 19 3
51 9 70 14 19 5 46 11 60 14 188 34 482 123 714 215 43 18 80 30 82 28 4 -3
12 -44 29 -142 2 -16 7 -41 10 -55 3 -14 10 -47 15 -73 5 -27 22 -96 36 -155
140 -569 311 -951 516 -1154 73 -73 165 -130 231 -144 297 -63 554 178 765
722 l40 102 -65 21 c-36 12 -67 20 -68 19 -2 -2 -20 -46 -40 -98 -160 -410
-355 -644 -536 -642 -177 1 -377 230 -518 593 -18 46 -37 93 -41 104 -69 168
-191 651 -226 900 -4 22 -7 44 -8 49 0 5 46 29 104 53 221 92 450 195 568 257
l123 64 182 -88 c100 -48 220 -104 267 -125 47 -21 117 -52 155 -70 39 -18 82
-36 95 -40 59 -18 101 -46 96 -63 -3 -9 -8 -37 -11 -62 -3 -25 -11 -62 -16
-83 -12 -47 -9 -52 37 -55 20 -2 45 -7 55 -12 10 -6 20 -10 22 -10 7 0 28 128
30 178 0 6 3 12 6 12 4 0 115 -36 246 -79 196 -65 437 -138 515 -156 61 -15
274 -55 315 -60 28 -3 68 -8 90 -11 22 -3 96 -7 165 -8 397 -9 627 104 687
337 14 57 14 163 -1 232 -10 50 -51 156 -87 227 -153 308 -462 651 -938 1043
l-83 68 30 26 c16 14 56 49 88 76 113 96 190 169 349 329 179 180 227 233 315
346 19 25 37 47 40 50 13 12 110 161 141 215 193 336 179 617 -37 760 -82 55
-174 85 -311 103 l-62 8 4 -63 c2 -34 6 -67 9 -72 3 -5 27 -12 53 -16 169 -24
281 -89 321 -185 44 -105 12 -275 -84 -448 -128 -232 -373 -520 -678 -797 -55
-49 -107 -97 -116 -105 -8 -8 -40 -35 -70 -60 -30 -25 -57 -47 -60 -50 -33
-34 -35 -33 -173 74 -128 98 -275 203 -482 345 -50 34 -91 69 -91 79 -1 9 -5
62 -8 117 -4 55 -9 116 -11 135 -3 19 -7 73 -10 120 -3 47 -7 99 -10 115 -2
17 -7 60 -10 97 -3 37 -8 77 -10 90 -2 13 -6 50 -10 83 -4 32 -9 63 -11 67 -7
11 11 41 27 44 8 2 77 26 154 55 77 28 145 52 150 53 6 2 53 16 105 33 52 16
143 43 202 58 105 27 106 28 97 52 -5 13 -9 40 -9 59 0 19 -3 34 -7 34 -5 0
-44 -10 -88 -21 -44 -11 -89 -22 -100 -25 -93 -19 -502 -162 -532 -186 -12
-10 -18 3 -27 62 -4 30 -17 93 -42 220 -14 68 -87 349 -119 459 -106 363 -250
657 -399 818 -138 149 -296 206 -453 163z m197 -137 c77 -38 188 -149 245
-244 192 -322 325 -728 424 -1291 l17 -96 -65 -28 c-237 -97 -437 -187 -573
-255 -129 -66 -160 -78 -180 -70 -12 5 -99 46 -193 91 -148 71 -359 166 -532
240 -44 19 -52 26 -48 44 2 11 14 72 25 135 111 605 310 1129 519 1363 44 49
127 109 176 125 49 17 135 10 185 -14z m-660 -1880 c74 -34 193 -89 264 -123
l129 -61 -117 -65 c-142 -78 -492 -285 -594 -352 l-23 -15 6 79 c11 170 15
217 31 374 4 36 8 76 9 90 4 37 15 122 20 145 2 11 4 25 4 32 1 13 50 -6 271
-104z m1373 100 c6 -11 14 -79 52 -478 3 -27 8 -93 11 -145 7 -92 6 -95 -12
-79 -22 19 -356 218 -459 274 -92 49 -245 138 -245 142 0 11 609 290 637 292
6 1 14 -2 16 -6z m-653 -451 c180 -97 664 -380 715 -418 20 -14 20 -27 21
-509 1 -272 -1 -505 -3 -518 -4 -17 -40 -44 -146 -109 -78 -47 -205 -124 -282
-170 -77 -47 -196 -116 -265 -153 -69 -37 -145 -78 -168 -92 l-44 -24 -121 64
c-123 65 -511 293 -687 403 l-95 60 -2 516 -2 517 37 22 c20 13 46 28 57 34
11 6 92 56 180 110 191 117 373 222 510 294 55 30 104 57 109 62 6 5 37 -6 75
-28 36 -20 86 -47 111 -61z m-1213 -946 l0 -425 -76 52 c-41 29 -82 57 -90 64
-9 6 -101 73 -206 149 -104 75 -196 142 -203 149 -10 9 24 38 161 139 128 93
392 282 413 295 1 1 1 -190 1 -423z m2283 281 c102 -73 231 -167 287 -208
l103 -76 -83 -65 c-168 -132 -506 -366 -508 -351 0 4 0 58 1 118 6 351 6 633
0 671 -5 29 -3 44 4 44 6 0 94 -60 196 -133z m554 -409 c28 -24 56 -47 62 -53
6 -5 40 -35 75 -66 224 -198 429 -406 563 -574 214 -269 319 -483 317 -653 -1
-136 -78 -227 -234 -278 -75 -25 -96 -27 -257 -28 -155 -1 -230 3 -335 18
-225 33 -557 122 -872 235 -78 28 -146 51 -152 51 -13 0 -14 34 -1 120 8 57
15 113 25 200 1 14 6 59 10 100 3 41 8 91 10 110 4 42 16 212 20 295 3 49 7
62 26 75 138 90 459 319 554 394 66 52 124 95 129 95 4 1 31 -18 60 -41z
m-3379 -88 c77 -59 162 -122 189 -141 27 -19 67 -47 90 -63 23 -16 91 -62 151
-104 61 -41 111 -76 113 -77 4 -3 9 -56 17 -175 4 -58 9 -118 10 -135 2 -16 6
-66 9 -110 4 -44 8 -96 11 -115 2 -19 7 -64 11 -100 3 -36 8 -73 10 -84 2 -10
6 -44 10 -75 3 -31 8 -58 9 -61 10 -17 -29 -35 -205 -94 -173 -57 -414 -127
-481 -139 -13 -3 -53 -12 -89 -21 -56 -13 -131 -27 -280 -50 -179 -29 -421
-24 -553 10 -302 78 -330 327 -79 719 40 63 150 213 176 241 6 6 36 40 66 75
66 78 333 344 419 419 35 30 69 60 75 66 54 53 160 132 170 127 6 -4 74 -55
151 -113z m829 -554 c67 -41 228 -135 359 -209 l239 -136 -74 -38 c-40 -20
-84 -43 -98 -49 -14 -6 -65 -30 -114 -53 -78 -37 -135 -61 -326 -141 -25 -10
-46 -17 -48 -16 -1 2 -5 21 -8 42 -2 22 -7 55 -9 74 -3 19 -7 58 -10 85 -3 28
-8 68 -11 90 -2 22 -6 58 -9 80 -17 150 -28 345 -19 345 4 0 62 -33 128 -74z
m1641 22 c-10 -152 -16 -237 -20 -268 -2 -19 -7 -64 -10 -100 -3 -36 -8 -81
-10 -100 -3 -19 -7 -53 -9 -75 -7 -53 -17 -119 -20 -122 -1 -1 -78 31 -171 71
-189 81 -490 224 -484 230 2 2 48 27 102 55 54 29 214 122 355 207 141 84 260
153 264 154 3 0 5 -24 3 -52z"/>
<path d="M3384 4179 c-187 -25 -387 -158 -482 -321 -118 -201 -125 -431 -20
-648 33 -68 57 -100 127 -170 131 -130 264 -188 446 -194 120 -4 211 15 320
68 161 79 277 211 339 385 29 80 31 95 30 216 0 112 -4 140 -26 205 -107 314
-410 503 -734 459z"/>
<path d="M5450 5514 c-185 -80 -148 -353 50 -372 131 -12 235 94 216 221 -19
122 -154 199 -266 151z"/>
<path d="M942 4339 c-132 -67 -145 -247 -25 -333 166 -117 382 76 283 252 -51
90 -168 127 -258 81z"/>
<path d="M4163 1563 c-106 -36 -161 -171 -109 -270 59 -114 213 -145 303 -61
157 146 9 398 -194 331z"/>
</g>
</svg>
